<svg width="150" height="150" viewBox="0 0 150 150" fill="none" xmlns="http://www.w3.org/2000/svg">
<circle cx="74.8046" cy="74.804" r="62.4773" transform="rotate(12.8457 74.8046 74.804)" fill="#3B5998"/>
<path d="M77.7777 57.4477V67.645H86.9201C87.6234 67.645 87.975 68.3483 87.975 69.0516L86.5685 75.7326C86.5685 76.0842 85.8652 76.4358 85.5136 76.4358H77.7777V102.105H67.2287V76.7875H61.2509C60.5477 76.7875 60.196 76.4358 60.196 75.7326V69.0516C60.196 68.3483 60.5477 67.9967 61.2509 67.9967H67.2287V56.3928C67.2287 50.415 71.7999 45.8438 77.7777 45.8438H87.2717C87.975 45.8438 88.3266 46.1954 88.3266 46.8987V55.3379C88.3266 56.0412 87.975 56.3928 87.2717 56.3928H78.8326C78.1293 56.3928 77.7777 56.7444 77.7777 57.4477Z" fill="white"/>
</svg>
