<svg width="135" height="134" viewBox="0 0 135 134" fill="none" xmlns="http://www.w3.org/2000/svg">
<circle cx="67.5411" cy="67.0972" r="54.2099" transform="rotate(-15.4332 67.5411 67.0972)" fill="url(#paint0_radial_1_915)"/>
<circle cx="67.5411" cy="67.0972" r="54.2099" transform="rotate(-15.4332 67.5411 67.0972)" fill="url(#paint1_radial_1_915)"/>
<path d="M59.0662 36.8211C50.7344 39.1213 49.6989 39.4464 46.4676 40.4987C43.2429 41.5499 41.1564 42.6824 39.4152 43.9795C37.6138 45.3201 36.1915 46.8408 34.9573 49.0174C33.7215 51.1938 33.1459 53.1947 32.9166 55.4289C32.6947 57.5901 32.7926 59.963 33.5469 63.2682C34.3039 66.581 34.5544 67.6378 36.8546 75.9696C39.1547 84.3013 39.4796 85.3335 40.5312 88.5649C41.5831 91.7894 42.7156 93.876 44.0121 95.6173C45.3533 97.4186 46.874 98.8408 49.0506 100.075C51.2263 101.311 53.228 101.889 55.4608 102.116C57.6221 102.336 59.9948 102.237 63.3014 101.485C66.6149 100.731 67.6699 100.479 76.001 98.1789C84.3334 95.8786 85.3658 95.5544 88.597 94.5021C91.8217 93.4509 93.9108 92.3177 95.6533 91.0202C97.4541 89.6798 98.873 88.1572 100.106 85.9801C101.342 83.8038 101.918 81.8029 102.147 79.5687C102.363 77.4093 102.265 75.0364 101.517 71.7294C100.76 68.4164 100.511 67.3628 98.2107 59.031C95.9105 50.6993 95.5835 49.6643 94.5331 46.4325C93.4781 43.2089 92.345 41.1225 91.0523 39.3801C89.7091 37.5794 88.1884 36.1571 86.0112 34.923C83.8336 33.6877 81.8377 33.1106 79.6019 32.8852C77.4367 32.6665 75.0634 32.7652 71.7562 33.5173C68.4427 34.2718 67.3909 34.5229 59.0566 36.8238L59.0662 36.8211ZM57.8403 43.1094C58.6568 42.8826 59.5685 42.6323 60.5924 42.3496C68.7835 40.0883 69.7625 39.8497 73.0377 39.1037C76.0666 38.4147 77.828 38.4664 79.0253 38.5877C80.6105 38.7485 81.8147 39.1314 83.1842 39.9089C84.5544 40.6863 85.5014 41.5254 86.454 42.8032C87.1721 43.7674 88.1207 45.2526 89.0826 48.2062C90.1224 51.3996 90.4225 52.3623 92.6828 60.5496C94.9431 68.7368 95.1793 69.7171 95.9251 72.9917C96.6141 76.0206 96.5625 77.782 96.4407 78.9781C96.2799 80.5632 95.8954 81.7665 95.1179 83.136C94.3406 84.5062 93.5047 85.4523 92.2259 86.4038C91.2622 87.1238 89.7751 88.0709 86.8218 89.0334C83.6283 90.0732 82.6657 90.3734 74.4746 92.6347C66.2828 94.8962 65.3031 95.1322 62.0285 95.878C58.9993 96.5658 57.2379 96.5141 56.0399 96.3929C54.4548 96.2321 53.2486 95.8497 51.8785 95.0724C50.5083 94.2951 49.562 93.4586 48.6093 92.1801C47.8912 91.2159 46.9425 89.7307 45.9807 86.7771C44.9408 83.5837 44.6432 82.6203 42.3816 74.4279C40.1199 66.2355 39.8825 65.261 39.1367 61.9864C38.4477 58.9575 38.4994 57.1962 38.6207 55.9988C38.7815 54.4137 39.1652 53.2072 39.9425 51.837C40.7198 50.4668 41.5589 49.5198 42.8367 48.5673C43.8017 47.8469 45.2881 46.9 48.2413 45.9369C51.0361 45.0277 52.1223 44.6866 57.8382 43.1017L57.8403 43.1094ZM78.3745 42.9227C76.3421 43.4837 75.1478 45.586 75.7091 47.6191C76.2702 49.6515 78.3744 50.8453 80.4068 50.2842C82.4393 49.7231 83.633 47.6189 83.0719 45.5865C82.5108 43.554 80.4066 42.3603 78.3742 42.9214L78.3745 42.9227ZM63.1861 51.7449C54.4856 54.1468 49.3789 63.1484 51.7809 71.8489C54.1828 80.5494 63.1835 85.6529 71.884 83.2509C80.5845 80.849 85.6895 71.8514 83.2876 63.1508C80.8856 54.4503 71.8867 49.3429 63.1861 51.7449ZM64.7124 57.2734C70.3598 55.7143 76.2024 59.0284 77.7616 64.6764C79.3207 70.3238 76.006 76.1666 70.3586 77.7256C64.7106 79.2849 58.8684 75.97 57.3094 70.3226C55.7501 64.6746 59.0644 58.8326 64.7124 57.2734Z" fill="white"/>
<defs>
<radialGradient id="paint0_radial_1_915" cx="0" cy="0" r="1" gradientUnits="userSpaceOnUse" gradientTransform="translate(42.1303 129.658) rotate(-90) scale(107.452 99.9389)">
<stop stopColor="#FFDD55"/>
<stop offset="0.1" stopColor="#FFDD55"/>
<stop offset="0.5" stopColor="#FF543E"/>
<stop offset="1" stopColor="#C837AB"/>
</radialGradient>
<radialGradient id="paint1_radial_1_915" cx="0" cy="0" r="1" gradientUnits="userSpaceOnUse" gradientTransform="translate(-4.82972 20.6977) rotate(78.6806) scale(48.0315 197.988)">
<stop stopColor="#3771C8"/>
<stop offset="0.128" stopColor="#3771C8"/>
<stop offset="1" stopColor="#6600FF" stopOpacity="0"/>
</radialGradient>
</defs>
</svg>
