<svg width="134" height="134" viewBox="0 0 134 134" fill="none" xmlns="http://www.w3.org/2000/svg">
<circle cx="66.6149" cy="66.6148" r="54.2099" transform="rotate(15.3327 66.6149 66.6148)" fill="#FA0001"/>
<path d="M72.8593 87.8088L49.8381 81.4968C42.9317 79.6032 39.5899 73.7365 41.4835 66.8302L45.2707 53.0174C47.1644 46.1111 53.031 42.7692 59.9374 44.6629L82.9586 50.9749C89.8649 52.8685 93.2067 58.7351 91.3131 65.6415L87.5259 79.4542C85.6323 86.3606 79.7657 89.7024 72.8593 87.8088Z" fill="white"/>
<path d="M66.5957 60.102L71.4042 65.1332C73.0973 67.0825 72.5293 69.1544 70.0786 69.9676L63.3765 71.8428C60.6957 72.5929 59.1696 70.9368 59.8639 68.4045L61.7575 61.4982C62.5781 58.5054 64.6723 58.0895 66.5957 60.102Z" fill="#FA0001"/>
</svg>
