<svg width="39" height="40" viewBox="0 0 39 40" fill="none" xmlns="http://www.w3.org/2000/svg">
<path d="M16.9438 32.9322L16.0236 33.3235L16.9438 32.9322C16.4509 31.7728 15.0469 31.3167 13.9666 31.9649L8.5161 35.2355C8.50104 35.2445 8.49157 35.2473 8.48751 35.2483C8.48317 35.2493 8.47957 35.2495 8.47575 35.2493C8.4671 35.2487 8.45111 35.2447 8.43343 35.2318C8.41574 35.219 8.40699 35.205 8.40376 35.197C8.40233 35.1934 8.40145 35.1899 8.40109 35.1855C8.40076 35.1813 8.40048 35.1715 8.40442 35.1543L9.83063 28.9599C10.1133 27.7322 9.2456 26.5379 7.99062 26.4274L1.65865 25.8696C1.64116 25.868 1.63186 25.8647 1.628 25.8631C1.62388 25.8614 1.62082 25.8595 1.61789 25.857C1.61125 25.8515 1.60065 25.8388 1.5939 25.818C1.58714 25.7973 1.58828 25.7808 1.59039 25.7724C1.59133 25.7687 1.59267 25.7653 1.59499 25.7615C1.59717 25.758 1.60275 25.7498 1.61599 25.7383L6.41081 21.5652C7.36113 20.7381 7.36114 19.2619 6.41081 18.4348L1.61599 14.2617C1.60275 14.2502 1.59717 14.242 1.595 14.2385C1.59429 14.2373 1.59367 14.2362 1.59313 14.2351C1.59189 14.2326 1.59104 14.2302 1.5904 14.2276C1.58829 14.2192 1.58715 14.2027 1.5939 14.182C1.60065 14.1612 1.61125 14.1485 1.61789 14.143C1.62083 14.1405 1.62388 14.1386 1.628 14.1369C1.63185 14.1353 1.64115 14.132 1.65865 14.1304L7.99062 13.5726C9.2456 13.4621 10.1133 12.2678 9.83064 11.0401L8.40442 4.84566C8.40049 4.82855 8.40076 4.81868 8.4011 4.81452C8.40128 4.81231 8.40158 4.81034 8.40202 4.80848C8.40247 4.80658 8.40305 4.80481 8.40376 4.80302C8.407 4.79498 8.41575 4.781 8.43343 4.76816C8.45111 4.75531 8.46711 4.75131 8.47575 4.75072C8.47957 4.75045 8.48317 4.7507 8.48751 4.75173C8.49157 4.7527 8.50104 4.75549 8.5161 4.76452L13.9666 8.03512C15.0469 8.68334 16.4509 8.22717 16.9438 7.06776L19.431 1.21806C19.4379 1.2019 19.4439 1.19408 19.4466 1.19091C19.4495 1.18752 19.4523 1.18521 19.4555 1.18318C19.4629 1.17858 19.4782 1.17241 19.5 1.17241C19.5219 1.17241 19.5372 1.17858 19.5445 1.18318C19.5477 1.18521 19.5505 1.18752 19.5534 1.19091C19.5561 1.19408 19.5622 1.2019 19.569 1.21806L22.0562 7.06776C22.5491 8.22716 23.9531 8.68334 25.0334 8.03512L24.5625 7.25031L25.0334 8.03511L30.4839 4.76452C30.499 4.75549 30.5084 4.75271 30.5125 4.75174C30.5151 4.75111 30.5175 4.75077 30.5198 4.75067C30.5213 4.75059 30.5228 4.75062 30.5243 4.75072C30.5329 4.75131 30.5489 4.75531 30.5666 4.76816C30.5843 4.78101 30.593 4.79499 30.5963 4.80302C30.5977 4.80657 30.5986 4.81007 30.5989 4.81452C30.5993 4.81868 30.5995 4.82855 30.5956 4.84566L29.1694 11.0401C28.8867 12.2678 29.7544 13.4621 31.0094 13.5727L37.3414 14.1304C37.3589 14.132 37.3682 14.1353 37.372 14.1369C37.3761 14.1386 37.3792 14.1405 37.3821 14.143C37.3888 14.1485 37.3994 14.1612 37.4061 14.182C37.4129 14.2027 37.4117 14.2192 37.4096 14.2276C37.4087 14.2313 37.4073 14.2347 37.405 14.2385C37.4028 14.242 37.3973 14.2502 37.384 14.2617L32.5892 18.4348C31.6389 19.2619 31.6389 20.7381 32.5892 21.5652L37.384 25.7383C37.3973 25.7498 37.4028 25.758 37.405 25.7615C37.4073 25.7653 37.4087 25.7687 37.4096 25.7724C37.4117 25.7808 37.4129 25.7973 37.4061 25.8181C37.3994 25.8388 37.3888 25.8515 37.3821 25.857C37.3792 25.8595 37.3761 25.8614 37.372 25.8631C37.3682 25.8647 37.3589 25.868 37.3414 25.8696L31.0094 26.4274C29.7544 26.5379 28.8867 27.7322 29.1694 28.9599L30.5956 35.1543C30.5995 35.1715 30.5992 35.1813 30.5989 35.1855C30.5986 35.1899 30.5977 35.1934 30.5963 35.197C30.593 35.205 30.5843 35.219 30.5666 35.2318C30.5489 35.2447 30.5329 35.2487 30.5243 35.2493C30.5204 35.2495 30.5168 35.2493 30.5125 35.2483C30.5084 35.2473 30.499 35.2445 30.4839 35.2355L25.0334 31.9649C23.9531 31.3167 22.5491 31.7728 22.0562 32.9322L19.569 38.7819C19.5622 38.7981 19.5561 38.8059 19.5534 38.8091C19.5505 38.8125 19.5477 38.8148 19.5445 38.8168C19.5372 38.8214 19.5219 38.8276 19.5 38.8276C19.4781 38.8276 19.4629 38.8214 19.4555 38.8168C19.4523 38.8148 19.4495 38.8125 19.4466 38.8091C19.4439 38.8059 19.4379 38.7981 19.431 38.7819L16.9438 32.9322Z" stroke="#0D1013" stroke-width="2"/>
</svg>
