<svg width="24" height="24" viewBox="0 0 24 24" fill="none" xmlns="http://www.w3.org/2000/svg">
<path d="M1.003 3.09H10.4277C10.6482 3.09 10.8315 3.27047 10.8315 3.49866V20.5013C10.8315 20.7295 10.6482 20.9099 10.4277 20.9099H1.003C0.782431 20.9099 0.599121 20.7295 0.599121 20.5013V3.49866C0.599121 3.27047 0.782431 3.09 1.003 3.09Z" stroke="#0D1013"/>
<path d="M13.5718 3.09H22.9965C23.2171 3.09 23.4004 3.27047 23.4004 3.49866V12.9733C23.4004 13.2015 23.2171 13.382 22.9965 13.382H13.5718C13.3513 13.382 13.168 13.2015 13.168 12.9733V3.49866C13.168 3.27047 13.3513 3.09 13.5718 3.09Z" stroke="#0D1013"/>
<path d="M13.5718 15.7263H22.9965C23.2171 15.7263 23.4004 15.9068 23.4004 16.135V20.5013C23.4004 20.7295 23.2171 20.91 22.9965 20.91H13.5718C13.3513 20.91 13.168 20.7295 13.168 20.5013V16.135C13.168 15.9068 13.3513 15.7263 13.5718 15.7263Z" stroke="#0D1013"/>
</svg>
