<svg width="24" height="24" viewBox="0 0 24 24" fill="none" xmlns="http://www.w3.org/2000/svg">
<path d="M10.4277 2.58998H1.003C0.5038 2.58998 0.0991211 2.99681 0.0991211 3.49865V20.5013C0.0991211 21.0031 0.5038 21.41 1.003 21.41H10.4277C10.9269 21.41 11.3316 21.0031 11.3316 20.5013V3.49865C11.3316 2.99681 10.9269 2.58998 10.4277 2.58998Z" fill="#1C86EC"/>
<path d="M22.9965 2.58998H13.5718C13.0726 2.58998 12.668 2.99681 12.668 3.49865V12.9733C12.668 13.4752 13.0726 13.882 13.5718 13.882H22.9965C23.4957 13.882 23.9004 13.4752 23.9004 12.9733V3.49865C23.9004 2.99681 23.4957 2.58998 22.9965 2.58998Z" fill="#1C86EC"/>
<path d="M22.9965 15.2263H13.5718C13.0726 15.2263 12.668 15.6331 12.668 16.135V20.5014C12.668 21.0032 13.0726 21.41 13.5718 21.41H22.9965C23.4957 21.41 23.9004 21.0032 23.9004 20.5014V16.135C23.9004 15.6331 23.4957 15.2263 22.9965 15.2263Z" fill="#1C86EC"/>
</svg>
