<svg width="2353" height="354" viewBox="0 0 2353 354" fill="none" xmlns="http://www.w3.org/2000/svg">
<path d="M112.344 75.168H9.83148C4.4017 75.168 0 79.5705 0 85.0013V268.999C0 274.429 4.4017 278.832 9.83148 278.832H112.344C117.774 278.832 122.175 274.429 122.175 268.999V85.0013C122.175 79.5705 117.774 75.168 112.344 75.168Z" fill="black"/>
<path d="M249.063 75.168H146.55C141.12 75.168 136.719 79.5705 136.719 85.0013V187.533C136.719 192.964 141.12 197.366 146.55 197.366H249.063C254.492 197.366 258.894 192.964 258.894 187.533V85.0013C258.894 79.5705 254.492 75.168 249.063 75.168Z" fill="black"/>
<path d="M249.063 211.915H146.55C141.12 211.915 136.719 216.317 136.719 221.748V268.999C136.719 274.43 141.12 278.833 146.55 278.833H249.063C254.492 278.833 258.894 274.43 258.894 268.999V221.748C258.894 216.317 254.492 211.915 249.063 211.915Z" fill="black"/>
<path d="M424.879 281.889C408.751 281.889 394.878 278.471 383.258 271.636C371.708 264.733 362.826 255.164 356.605 242.93C350.456 230.695 347.379 216.615 347.379 200.689C347.379 184.559 350.491 170.41 356.709 158.244C362.996 146.009 371.913 136.475 383.463 129.64C395.013 122.736 408.751 119.285 424.675 119.285C438.41 119.285 450.439 121.779 460.759 126.769C471.079 131.759 479.246 138.764 485.259 147.787C491.272 156.809 494.589 167.403 495.204 179.569H453.992C452.832 171.709 449.755 165.387 444.766 160.602C439.847 155.749 433.387 153.323 425.39 153.323C418.627 153.323 412.715 155.168 407.657 158.859C402.669 162.482 398.772 167.779 395.972 174.751C393.169 181.722 391.768 190.163 391.768 200.074C391.768 210.122 393.134 218.665 395.868 225.705C398.671 232.746 402.6 238.111 407.657 241.802C412.715 245.493 418.627 247.338 425.39 247.338C430.382 247.338 434.856 246.313 438.82 244.262C442.852 242.212 446.166 239.239 448.764 235.343C451.429 231.379 453.173 226.628 453.992 221.092H495.204C494.519 233.121 491.24 243.716 485.363 252.874C479.552 261.965 471.524 269.073 461.27 274.2C451.019 279.326 438.889 281.889 424.879 281.889ZM594.306 281.889C578.382 281.889 564.613 278.506 552.993 271.739C541.444 264.904 532.526 255.403 526.239 243.237C519.952 231.003 516.808 216.82 516.808 200.689C516.808 184.422 519.952 170.205 526.239 158.039C532.526 145.804 541.444 136.304 552.993 129.537C564.613 122.702 578.382 119.285 594.306 119.285C610.229 119.285 623.967 122.702 635.517 129.537C647.136 136.304 656.088 145.804 662.375 158.039C668.663 170.205 671.806 184.422 671.806 200.689C671.806 216.82 668.663 231.003 662.375 243.237C656.088 255.403 647.136 264.904 635.517 271.739C623.967 278.506 610.229 281.889 594.306 281.889ZM594.511 248.056C601.756 248.056 607.804 246.005 612.657 241.904C617.509 237.735 621.164 232.062 623.626 224.885C626.155 217.708 627.42 209.541 627.42 200.382C627.42 191.223 626.155 183.055 623.626 175.878C621.164 168.702 617.509 163.028 612.657 158.859C607.804 154.69 601.756 152.605 594.511 152.605C587.199 152.605 581.05 154.69 576.059 158.859C571.14 163.028 567.416 168.702 564.887 175.878C562.424 183.055 561.195 191.223 561.195 200.382C561.195 209.541 562.424 217.708 564.887 224.885C567.416 232.062 571.14 237.735 576.059 241.904C581.05 246.005 587.199 248.056 594.511 248.056ZM743.871 187.771V278.813H700.203V121.335H741.822V149.119H743.666C747.153 139.961 752.996 132.715 761.198 127.384C769.399 121.985 779.341 119.285 791.029 119.285C801.964 119.285 811.496 121.677 819.628 126.461C827.763 131.246 834.082 138.081 838.594 146.966C843.103 155.784 845.361 166.309 845.361 178.544V278.813H801.69V186.336C801.756 176.699 799.297 169.18 794.308 163.78C789.32 158.312 782.453 155.578 773.703 155.578C767.825 155.578 762.632 156.843 758.12 159.372C753.68 161.901 750.193 165.592 747.664 170.445C745.205 175.229 743.94 181.005 743.871 187.771ZM963.53 121.335V154.143H868.706V121.335H963.53ZM890.235 83.6061H933.906V230.421C933.906 234.454 934.521 237.598 935.751 239.854C936.98 242.041 938.689 243.579 940.875 244.467C943.132 245.356 945.727 245.8 948.666 245.8C950.716 245.8 952.768 245.63 954.818 245.288C956.867 244.877 958.44 244.57 959.532 244.365L966.402 276.865C964.214 277.549 961.14 278.335 957.176 279.223C953.213 280.18 948.395 280.761 942.722 280.966C932.197 281.376 922.971 279.975 915.044 276.763C907.183 273.55 901.066 268.561 896.693 261.794C892.319 255.028 890.166 246.484 890.235 236.163V83.6061ZM1062.05 281.889C1045.85 281.889 1031.91 278.608 1020.22 272.046C1008.6 265.417 999.649 256.053 993.361 243.955C987.074 231.788 983.93 217.401 983.93 200.792C983.93 184.593 987.074 170.376 993.361 158.141C999.649 145.907 1008.5 136.372 1019.91 129.537C1031.39 122.702 1044.86 119.285 1060.3 119.285C1070.69 119.285 1080.36 120.959 1089.31 124.308C1098.34 127.589 1106.19 132.544 1112.89 139.174C1119.66 145.804 1124.92 154.143 1128.68 164.191C1132.44 174.169 1134.32 185.857 1134.32 199.254V211.249H1001.36V184.183H1093.21C1093.21 177.895 1091.84 172.324 1089.11 167.471C1086.38 162.618 1082.58 158.825 1077.73 156.091C1072.95 153.289 1067.37 151.887 1061.02 151.887C1054.39 151.887 1048.51 153.425 1043.39 156.501C1038.33 159.509 1034.37 163.575 1031.5 168.702C1028.63 173.76 1027.16 179.398 1027.09 185.618V211.352C1027.09 219.144 1028.52 225.876 1031.39 231.549C1034.33 237.222 1038.47 241.597 1043.8 244.672C1049.13 247.748 1055.45 249.286 1062.76 249.286C1067.61 249.286 1072.06 248.603 1076.09 247.236C1080.12 245.869 1083.57 243.818 1086.44 241.084C1089.31 238.35 1091.5 235.001 1093 231.037L1133.39 233.702C1131.34 243.408 1127.14 251.883 1120.79 259.128C1114.5 266.305 1106.37 271.91 1096.39 275.943C1086.48 279.907 1075.03 281.889 1062.05 281.889ZM1206.48 187.771V278.813H1162.81V121.335H1204.43V149.119H1206.28C1209.77 139.961 1215.61 132.715 1223.81 127.384C1232.01 121.985 1241.95 119.285 1253.64 119.285C1264.57 119.285 1274.11 121.677 1282.24 126.461C1290.37 131.246 1296.7 138.081 1301.21 146.966C1305.72 155.784 1307.97 166.309 1307.97 178.544V278.813H1264.3V186.336C1264.37 176.699 1261.91 169.18 1256.92 163.78C1251.93 158.312 1245.06 155.578 1236.32 155.578C1230.44 155.578 1225.25 156.843 1220.73 159.372C1216.29 161.901 1212.81 165.592 1210.28 170.445C1207.82 175.229 1206.55 181.005 1206.48 187.771ZM1426.14 121.335V154.143H1331.32V121.335H1426.14ZM1352.85 83.6061H1396.52V230.421C1396.52 234.454 1397.13 237.598 1398.36 239.854C1399.59 242.041 1401.3 243.579 1403.49 244.467C1405.75 245.356 1408.34 245.8 1411.28 245.8C1413.33 245.8 1415.38 245.63 1417.43 245.288C1419.48 244.877 1421.05 244.57 1422.14 244.365L1429.02 276.865C1426.83 277.549 1423.75 278.335 1419.79 279.223C1415.82 280.18 1411 280.761 1405.33 280.966C1394.81 281.376 1385.58 279.975 1377.65 276.763C1369.8 273.55 1363.68 268.561 1359.31 261.794C1354.93 255.028 1352.78 246.484 1352.85 236.163V83.6061ZM1539.27 121.335V154.143H1442.08V121.335H1539.27ZM1464.33 278.813V109.955C1464.33 98.5405 1466.55 89.074 1470.99 81.5554C1475.5 74.0371 1481.66 68.398 1489.45 64.6389C1497.24 60.8796 1506.09 59 1516 59C1522.69 59 1528.81 59.5126 1534.35 60.5379C1539.95 61.5631 1544.12 62.4859 1546.85 63.3061L1539.06 96.1141C1537.35 95.5673 1535.23 95.0546 1532.7 94.5762C1530.25 94.0978 1527.72 93.8585 1525.12 93.8585C1518.7 93.8585 1514.22 95.3621 1511.69 98.3696C1509.16 101.309 1507.9 105.444 1507.9 110.775V278.813H1464.33ZM1631.45 281.889C1615.53 281.889 1601.76 278.506 1590.14 271.739C1578.59 264.904 1569.67 255.403 1563.38 243.237C1557.09 231.003 1553.95 216.82 1553.95 200.689C1553.95 184.422 1557.09 170.205 1563.38 158.039C1569.67 145.804 1578.59 136.304 1590.14 129.537C1601.76 122.702 1615.53 119.285 1631.45 119.285C1647.37 119.285 1661.11 122.702 1672.66 129.537C1684.28 136.304 1693.23 145.804 1699.52 158.039C1705.81 170.205 1708.95 184.422 1708.95 200.689C1708.95 216.82 1705.81 231.003 1699.52 243.237C1693.23 255.403 1684.28 264.904 1672.66 271.739C1661.11 278.506 1647.37 281.889 1631.45 281.889ZM1631.66 248.056C1638.9 248.056 1644.95 246.005 1649.8 241.904C1654.65 237.735 1658.31 232.062 1660.77 224.885C1663.3 217.708 1664.56 209.541 1664.56 200.382C1664.56 191.223 1663.3 183.055 1660.77 175.878C1658.31 168.702 1654.65 163.028 1649.8 158.859C1644.95 154.69 1638.9 152.605 1631.66 152.605C1624.34 152.605 1618.19 154.69 1613.2 158.859C1608.28 163.028 1604.56 168.702 1602.03 175.878C1599.57 183.055 1598.34 191.223 1598.34 200.382C1598.34 209.541 1599.57 217.708 1602.03 224.885C1604.56 232.062 1608.28 237.735 1613.2 241.904C1618.19 246.005 1624.34 248.056 1631.66 248.056ZM1737.35 278.813V121.335H1779.68V148.812H1781.32C1784.2 139.038 1789.01 131.656 1795.78 126.666C1802.54 121.608 1810.33 119.08 1819.15 119.08C1821.34 119.08 1823.69 119.216 1826.22 119.49C1828.75 119.763 1830.98 120.139 1832.89 120.618V159.372C1830.84 158.757 1828 158.21 1824.38 157.731C1820.76 157.253 1817.44 157.014 1814.43 157.014C1808.01 157.014 1802.27 158.415 1797.21 161.217C1792.22 163.951 1788.26 167.779 1785.32 172.7C1782.45 177.621 1781.02 183.294 1781.02 189.719V278.813H1737.35ZM1855.47 278.813V121.335H1897.08V149.119H1898.93C1902.21 139.892 1907.68 132.613 1915.33 127.282C1922.99 121.95 1932.14 119.285 1942.81 119.285C1953.6 119.285 1962.8 121.985 1970.38 127.384C1977.97 132.715 1983.03 139.961 1985.55 149.119H1987.19C1990.41 140.097 1996.22 132.886 2004.62 127.487C2013.1 122.019 2023.11 119.285 2034.66 119.285C2049.35 119.285 2061.28 123.967 2070.43 133.331C2079.66 142.626 2084.27 155.818 2084.27 172.905V278.813H2040.71V181.517C2040.71 172.768 2038.38 166.207 2033.73 161.832C2029.09 157.458 2023.28 155.271 2016.31 155.271C2008.38 155.271 2002.19 157.8 1997.75 162.858C1993.31 167.847 1991.09 174.443 1991.09 182.645V278.813H1948.75V180.594C1948.75 172.871 1946.53 166.719 1942.09 162.14C1937.72 157.561 1931.94 155.271 1924.77 155.271C1919.91 155.271 1915.54 156.501 1911.64 158.962C1907.81 161.354 1904.77 164.737 1902.52 169.112C1900.26 173.418 1899.14 178.476 1899.14 184.285V278.813H1855.47Z" fill="black"/>
</svg>
