<svg width="17" height="14" viewBox="0 0 17 14" fill="none" xmlns="http://www.w3.org/2000/svg">
<path d="M16.98 1.54C16.38 1.8 15.76 1.98 15.1 2.06C15.78 1.66 16.3 1.02 16.54 0.24C15.9 0.62 15.2 0.88 14.46 1.04C13.86 0.4 13 0 12.06 0C10.24 0 8.77998 1.48 8.77998 3.28C8.77998 3.54 8.79998 3.78 8.85998 4.02C6.13998 3.9 3.73998 2.58 2.11998 0.6C0.959981 2.68 2.25998 4.4 3.11998 4.98C2.59998 4.98 2.07998 4.82 1.63998 4.58C1.63998 6.2 2.77998 7.54 4.25998 7.84C3.93998 7.94 3.21998 8 2.77998 7.9C3.19998 9.2 4.41998 10.16 5.83998 10.18C4.71998 11.06 3.07998 11.76 0.97998 11.54C2.43998 12.48 4.15998 13.02 6.01998 13.02C12.06 13.02 15.34 8.02 15.34 3.7C15.34 3.56 15.34 3.42 15.32 3.28C16 2.78 16.56 2.2 16.98 1.54Z" fill="#45484B"/>
</svg>
