<svg width="103" height="91" viewBox="0 0 103 91" fill="none" xmlns="http://www.w3.org/2000/svg">
<path d="M70.3568 0C78.5531 0 85.2001 6.64749 85.2001 14.8433C85.2001 23.039 78.5526 29.6865 70.3568 29.6865C62.1584 29.6865 55.5136 23.039 55.5136 14.8433C55.5136 6.64749 62.1584 0 70.3568 0ZM98.1881 90.2976H50.4294H4.79845C0.698974 90.2976 -1.12676 87.3316 0.72126 83.6724L26.195 33.217C28.0408 29.5583 31.5585 29.2317 34.0497 32.487L59.6645 65.9614C62.1556 69.2171 66.5098 69.4941 69.3917 66.5772L75.658 60.2318C78.5376 57.3149 82.7804 57.676 85.1305 61.0332L101.357 84.2114C103.703 87.5736 102.288 90.2976 98.1881 90.2976Z" fill="#B7B7BB"/>
</svg>
