<svg width="11" height="11" viewBox="0 0 11 11" fill="none" xmlns="http://www.w3.org/2000/svg">
<path d="M10.1648 5.87383C10.169 5.52654 10.0788 5.18482 9.90411 4.88623C9.72946 4.58765 9.47713 4.34377 9.17486 4.18143C9.24834 3.97076 9.28529 3.74874 9.28408 3.52524C9.29119 3.2834 9.25112 3.04252 9.16618 2.81647C9.08124 2.59043 8.95312 2.38369 8.78917 2.20817C8.62523 2.03265 8.42872 1.89181 8.21095 1.79377C7.99319 1.69573 7.75848 1.64242 7.52035 1.63693C7.30894 1.63513 7.09914 1.67438 6.90223 1.75259C6.76717 1.43887 6.545 1.17196 6.26291 0.984528C5.98081 0.797093 5.65104 0.697266 5.31395 0.697266C4.97687 0.697266 4.6471 0.797093 4.365 0.984528C4.08291 1.17196 3.86073 1.43887 3.72567 1.75259C3.52957 1.6744 3.32053 1.63514 3.10987 1.63693C2.87154 1.64212 2.63659 1.6952 2.41856 1.7931C2.20053 1.891 2.00374 2.03179 1.83955 2.20735C1.67536 2.3829 1.54702 2.58974 1.46194 2.81594C1.37686 3.04213 1.33671 3.2832 1.34382 3.52524C1.34379 3.74864 1.38071 3.97046 1.45304 4.18143C1.16164 4.34226 0.916937 4.57799 0.743392 4.86505C0.569847 5.15211 0.473553 5.48042 0.464142 5.81715C0.454731 6.15387 0.532533 6.48721 0.689766 6.7838C0.846999 7.0804 1.07815 7.32986 1.36009 7.50722C1.34912 7.5854 1.34369 7.66428 1.34382 7.74326C1.33323 8.22993 1.5133 8.70097 1.84446 9.05284C2.17562 9.40471 2.63076 9.60863 3.10987 9.61977C3.32043 9.62037 3.52925 9.58115 3.72567 9.50411C3.86073 9.81783 4.08291 10.0847 4.365 10.2722C4.6471 10.4596 4.97687 10.5594 5.31395 10.5594C5.65104 10.5594 5.98081 10.4596 6.26291 10.2722C6.545 10.0847 6.76717 9.81783 6.90223 9.50411C7.09946 9.58117 7.30904 9.62039 7.52035 9.61977C7.75748 9.61425 7.99121 9.56133 8.2082 9.46403C8.42519 9.36673 8.62117 9.22696 8.78496 9.05269C8.94875 8.87843 9.07714 8.67309 9.16278 8.44842C9.24842 8.22374 9.28963 7.98412 9.28408 7.74326C9.28386 7.66437 9.27921 7.58556 9.27014 7.50722C9.54641 7.33752 9.77441 7.09766 9.93169 6.81125C10.089 6.52484 10.1678 6.20177 10.1648 5.87383ZM7.10672 4.29945L5.10365 7.36796C5.07206 7.41628 5.02925 7.45597 4.97901 7.48355C4.92876 7.51112 4.87261 7.52574 4.81551 7.5261C4.74672 7.52503 4.67973 7.50371 4.62264 7.46473L4.57151 7.42225L3.45612 6.28926C3.42377 6.25671 3.39805 6.21801 3.38042 6.17537C3.3628 6.13272 3.35362 6.08697 3.3534 6.04072C3.35319 5.99448 3.36194 5.94864 3.37917 5.90583C3.39639 5.86302 3.42175 5.82407 3.45379 5.79122C3.48583 5.75836 3.52393 5.73223 3.56592 5.71433C3.6079 5.69643 3.65293 5.68711 3.69846 5.68689C3.74399 5.68667 3.78912 5.69556 3.83127 5.71306C3.87341 5.73055 3.91175 5.75631 3.9441 5.78885L4.75974 6.61027L6.52811 3.91706C6.55091 3.87441 6.58215 3.83701 6.61988 3.80721C6.6576 3.77742 6.70099 3.75588 6.74731 3.74396C6.79362 3.73203 6.84187 3.72997 6.88901 3.7379C6.93615 3.74584 6.98116 3.7636 7.02122 3.79007C7.06127 3.81654 7.09549 3.85114 7.12174 3.8917C7.14798 3.93227 7.16568 3.97791 7.17371 4.02575C7.18174 4.0736 7.17994 4.12262 7.16841 4.16972C7.15688 4.21682 7.13588 4.26099 7.10672 4.29945Z" fill="#1C86EC"/>
</svg>
