<svg width="24" height="24" viewBox="0 0 24 24" fill="none" xmlns="http://www.w3.org/2000/svg">
<path d="M17.2497 3H7.74988C5.13768 3 3 5.13768 3 7.74988V17.2501C3 19.8616 5.13768 22 7.74988 22H17.2497C19.8619 22 21.9995 19.8616 21.9995 17.2501V7.74988C21.9995 5.13768 19.8619 3 17.2497 3ZM20.4162 17.2501C20.4162 18.9957 18.9962 20.4166 17.2497 20.4166H7.74988C6.00407 20.4166 4.58337 18.9957 4.58337 17.2501V7.74988C4.58337 6.00384 6.00407 4.58337 7.74988 4.58337H17.2497C18.9962 4.58337 20.4162 6.00384 20.4162 7.74988V17.2501Z" fill="black"/>
<path d="M17.6463 8.54145C18.3021 8.54145 18.8337 8.0098 18.8337 7.35397C18.8337 6.69815 18.3021 6.1665 17.6463 6.1665C16.9904 6.1665 16.4588 6.69815 16.4588 7.35397C16.4588 8.0098 16.9904 8.54145 17.6463 8.54145Z" fill="black"/>
<path d="M12.4998 7.74988C9.87593 7.74988 7.74989 9.87615 7.74989 12.4998C7.74989 15.1224 9.87593 17.2501 12.4998 17.2501C15.1229 17.2501 17.2497 15.1224 17.2497 12.4998C17.2497 9.87615 15.1229 7.74988 12.4998 7.74988ZM12.4998 15.6667C10.7511 15.6667 9.33327 14.2489 9.33327 12.4998C9.33327 10.7506 10.7511 9.33325 12.4998 9.33325C14.2485 9.33325 15.6663 10.7506 15.6663 12.4998C15.6663 14.2489 14.2485 15.6667 12.4998 15.6667Z" fill="black"/>
</svg>
