<svg width="27" height="23" viewBox="0 0 27 23" fill="none" xmlns="http://www.w3.org/2000/svg">
<path d="M8.51276 22.1224C5.55929 22.1253 2.66736 21.2649 0.182129 19.6439C3.05664 19.9913 5.94968 19.169 8.22927 17.3567C7.09426 17.3366 5.99393 16.9561 5.08254 16.2687C4.17115 15.5812 3.49441 14.6213 3.14724 13.5235C3.9616 13.6822 4.80092 13.6499 5.60113 13.429C4.37107 13.1764 3.26483 12.4995 2.46991 11.5131C1.67499 10.5267 1.24028 9.29141 1.23945 8.01666C1.23825 7.99307 1.23825 7.96944 1.23945 7.94585C1.99344 8.37274 2.83746 8.60913 3.70029 8.63509C2.54946 7.85476 1.73476 6.65815 1.42218 5.28899C1.1096 3.91983 1.32265 2.48113 2.0179 1.26595C3.38262 2.97147 5.08532 4.36627 7.01538 5.35973C8.94543 6.35319 11.0596 6.92308 13.2207 7.03238C12.948 5.84825 13.0677 4.6058 13.5611 3.49779C14.0546 2.38979 14.8942 1.47819 15.9498 0.904409C17.0054 0.330633 18.2179 0.126766 19.3992 0.324439C20.5805 0.522112 21.6645 1.11027 22.4831 1.99767C23.7004 1.75564 24.8676 1.30293 25.9339 0.659326C25.5282 1.93775 24.6793 3.02308 23.5451 3.71367C24.6225 3.58392 25.6745 3.29031 26.6659 2.84269C25.9392 3.95565 25.0233 4.92835 23.961 5.71528C23.961 5.95132 23.9773 6.18736 23.9773 6.4234C23.9773 13.717 18.5095 22.1294 8.51276 22.1294" fill="#1C86EC"/>
</svg>
